<?xml version="1.0" encoding="UTF-8"?>
<!DOCTYPE svg PUBLIC "-//W3C//DTD SVG 1.1//EN" "http://www.w3.org/Graphics/SVG/1.1/DTD/svg11.dtd">
<!-- Creator: CorelDRAW 2019 (64-Bit) -->
<svg xmlns="http://www.w3.org/2000/svg" xml:space="preserve" width="100px" height="100px" version="1.1" style="shape-rendering:geometricPrecision; text-rendering:geometricPrecision; image-rendering:optimizeQuality; fill-rule:evenodd; clip-rule:evenodd"
viewBox="0 0 100 100"
 xmlns:xlink="http://www.w3.org/1999/xlink"
 xmlns:xodm="http://www.corel.com/coreldraw/odm/2003">
 <defs>
  <style type="text/css">
   <![CDATA[
    .str0 {stroke:#FEBD69;stroke-width:2;stroke-miterlimit:2.61313}
    .fil0 {fill:none}
   ]]>
  </style>
 </defs>
 <g id="Layer_x0020_1">
  <metadata id="CorelCorpID_0Corel-Layer"/>
  <path class="fil0 str0" d="M12.618 79.5l-4.618 0c-2.2,0 -4,-1.8 -4,-4l0 -7.72"/>
  <path class="fil0 str0" d="M28.5 80l29.5 0 0 -47.575c0,-2.434 -1.8,-4.425 -4,-4.425l-46 0c-2.2,0 -4,1.991 -4,4.425l0 27.637 0 6.971"/>
  <circle class="fil0 str0" cx="20.5" cy="79" r="9"/>
  <path class="fil0 str0" d="M63.5 80l-5.5 0 0 -26 33 0 0 18.705m-24.5 7.295l-3 0"/>
  <polyline class="fil0 str0" points="91,72.705 91,80 82.553,80 "/>
  <circle class="fil0 str0" cx="74.3" cy="79" r="9"/>
  <polyline class="fil0 str0" points="91,54 78.5,40.5 58,40.5 "/>
  <path class="fil0 str0" d="M4 71.187c0,-5.875 0,-5.875 0,-5.875"/>
  <path class="fil0 str0" d="M91 69.469c0,4.937 0,4.937 0,4.937"/>
 </g>
</svg>
