<?xml version="1.0" encoding="UTF-8"?>
<!DOCTYPE svg PUBLIC "-//W3C//DTD SVG 1.1//EN" "http://www.w3.org/Graphics/SVG/1.1/DTD/svg11.dtd">
<!-- Creator: CorelDRAW 2019 (64-Bit) -->
<svg xmlns="http://www.w3.org/2000/svg" xml:space="preserve" width="100px" height="100px" version="1.1" style="shape-rendering:geometricPrecision; text-rendering:geometricPrecision; image-rendering:optimizeQuality; fill-rule:evenodd; clip-rule:evenodd"
viewBox="0 0 100 100"
 xmlns:xlink="http://www.w3.org/1999/xlink"
 xmlns:xodm="http://www.corel.com/coreldraw/odm/2003">
 <defs>
  <style type="text/css">
   <![CDATA[
    .str1 {stroke:#FEBD69;stroke-width:2;stroke-miterlimit:2.61313}
    .str0 {stroke:#FEBD69;stroke-width:2;stroke-miterlimit:2.61313}
    .str3 {stroke:white;stroke-width:1.5;stroke-miterlimit:2.61313}
    .str2 {stroke:white;stroke-miterlimit:2.61313}
    .fil0 {fill:none}
    .fil1 {fill:#FEBD69}
    .fil2 {fill:white}
   ]]>
  </style>
 </defs>
 <g id="Layer_x0020_1">
  <metadata id="CorelCorpID_0Corel-Layer"/>
  <path class="fil0 str0" d="M43.745 72.25l42.755 0c2.201,0 4,-1.8 4,-4l0 -34c0,-2.2 -1.799,-4 -4,-4l-64 0c-2.2,0 -4,1.8 -4,4l0 15.847"/>
  <path class="fil0 str0" d="M86.042 24.98l-7.613 -18.843c-0.628,-1.554 -2.811,-2.151 -4.851,-1.327l-59.34 23.974c-2.04,0.825 -3.195,2.77 -2.567,4.325l1.875 4.641"/>
  <path class="fil1 str1" d="M23 61l12 0c2.201,0 4,1.8 4,4l0 13 -20 0 0 -13c0,-2.2 1.799,-4 4,-4z"/>
  <path class="fil0 str0" d="M34 60l0 -4.5c0,-2.75 -2.25,-5 -5,-5l-0.001 0c-2.75,0 -4.999,2.25 -4.999,5l0 4.5"/>
  <ellipse class="fil2 str2" cx="29" cy="67.5" rx="3.5" ry="4"/>
  <rect class="fil0 str3" x="28.25" y="70" width="1.5" height="5"/>
 </g>
</svg>
