<?xml version="1.0" encoding="UTF-8"?>
<!DOCTYPE svg PUBLIC "-//W3C//DTD SVG 1.1//EN" "http://www.w3.org/Graphics/SVG/1.1/DTD/svg11.dtd">
<!-- Creator: CorelDRAW 2019 (64-Bit) -->
<svg xmlns="http://www.w3.org/2000/svg" xml:space="preserve" width="100px" height="100px" version="1.1" style="shape-rendering:geometricPrecision; text-rendering:geometricPrecision; image-rendering:optimizeQuality; fill-rule:evenodd; clip-rule:evenodd"
viewBox="0 0 100 100"
 xmlns:xlink="http://www.w3.org/1999/xlink"
 xmlns:xodm="http://www.corel.com/coreldraw/odm/2003">
 <defs>
  <style type="text/css">
   <![CDATA[
    .str0 {stroke:#FEBD69;stroke-width:2;stroke-miterlimit:2.61313}
    .str3 {stroke:white;stroke-width:1.5;stroke-miterlimit:2.61313}
    .str1 {stroke:#FEBD69;stroke-miterlimit:2.61313}
    .str2 {stroke:#FEBD69;stroke-width:0.5;stroke-miterlimit:2.61313}
    .fil0 {fill:none}
    .fil1 {fill:#FEBD69}
   ]]>
  </style>
 </defs>
 <g id="Layer_x0020_1">
  <metadata id="CorelCorpID_0Corel-Layer"/>
  <path class="fil0 str0" d="M25 61l32 0c8.8,0 16,7.2 16,16l0 6 -64 0 0 -6c0,-8.8 7.2,-16 16,-16z"/>
  <circle class="fil0 str0" cx="40.5" cy="33.5" r="15.5"/>
  <path class="fil0 str1" d="M25 52l-1 0c-7.7,0 -14,-3.088 -14,-6.862l0 -11.275c0,-3.774 6.3,-6.862 14,-6.862l1 0"/>
  <circle class="fil1 str2" cx="24.5" cy="52" r="4.5"/>
  <path class="fil0 str1" d="M75.113 53.51c1.606,0.331 3.248,0.49 4.887,0.49 9.113,0 16.5,-4.925 16.5,-11 0,-6.075 -7.387,-11 -16.5,-11 -9.112,0 -16.5,4.925 -16.5,11 0,2.143 0.918,4.062 2.325,5.633"/>
  <line class="fil0 str1" x1="68.5" y1="51.5" x2="65.825" y2= "48.633" />
  <line class="fil0 str1" x1="72.5" y1="53.5" x2="75.113" y2= "53.51" />
  <path class="fil0 str1" d="M68.5 51.5c-1,5 -1,5 -1,5l5 -3"/>
  <path class="fil0 str3" d="M89.5 39c-15,0 -15,0 -15,0"/>
  <path class="fil0 str3" d="M89.5 43c-7,0 -7,0 -7,0"/>
 </g>
</svg>
