<?xml version="1.0" encoding="UTF-8"?>
<!DOCTYPE svg PUBLIC "-//W3C//DTD SVG 1.1//EN" "http://www.w3.org/Graphics/SVG/1.1/DTD/svg11.dtd">
<!-- Creator: CorelDRAW 2019 (64-Bit) -->
<svg xmlns="http://www.w3.org/2000/svg" xml:space="preserve" width="100px" height="100px" version="1.1" style="shape-rendering:geometricPrecision; text-rendering:geometricPrecision; image-rendering:optimizeQuality; fill-rule:evenodd; clip-rule:evenodd"
viewBox="0 0 100 100"
 xmlns:xlink="http://www.w3.org/1999/xlink"
 xmlns:xodm="http://www.corel.com/coreldraw/odm/2003">
 <defs>
  <style type="text/css">
   <![CDATA[
    .str1 {stroke:white;stroke-width:3;stroke-miterlimit:2.61313}
    .str0 {stroke:#FEBD69;stroke-width:2;stroke-miterlimit:2.61313}
    .fil1 {fill:none}
    .fil2 {fill:#FEBD69}
    .fil0 {fill:#FEBD69;fill-rule:nonzero}
   ]]>
  </style>
 </defs>
 <g id="Layer_x0020_1">
  <metadata id="CorelCorpID_0Corel-Layer"/>
  <g>
   <path class="fil0" d="M15.509 69.528l3.937 0.753 -0.753 3.936 -3.937 -0.753 -1.683 -0.475 -1.554 -0.587 -1.424 -0.688 -1.297 -0.781 -1.17 -0.865 -1.045 -0.94 -0.92 -1.005 -0.797 -1.063 -0.676 -1.111 -0.554 -1.149 -0.435 -1.18 -0.316 -1.2 -0.199 -1.212 -0.083 -1.216 0.032 -1.209 0.147 -1.195 0.258 -1.17 0.371 -1.138 0.48 -1.095 0.59 -1.045 0.698 -0.985 0.805 -0.915 0.911 -0.838 1.015 -0.751 1.119 -0.655 1.221 -0.551 1.322 -0.436 1.421 -0.314 1.521 -0.181 1.619 -0.041 1.714 0.108 1.81 0.268 0 0 0.753 -3.936 6.751 7.416 -9.012 4.401 0.754 -3.937 -1.27 -0.186 -1.2 -0.079 -1.13 0.025 -1.061 0.121 -0.99 0.212 -0.918 0.296 -0.846 0.374 -0.774 0.446 -0.7 0.512 -0.627 0.573 -0.552 0.626 -0.477 0.674 -0.401 0.716 -0.326 0.752 -0.248 0.781 -0.171 0.804 -0.093 0.822 -0.013 0.833 0.065 0.838 0.145 0.838 0.225 0.83 0.307 0.817 0.389 0.798 0.47 0.772 0.554 0.742 0.637 0.704 0.721 0.66 0.807 0.61 0.891 0.555 0.977 0.493 1.064 0.425 1.151 0.351 0 0zm68.409 -36.794l3.975 -0.447 0.308 3.376 0.147 3.251 -0.013 3.128 -0.176 3.005 -0.339 2.881 -0.506 2.758 -0.674 2.632 -0.842 2.507 -1.014 2.377 -1.185 2.246 -1.357 2.111 -1.527 1.971 -1.695 1.828 -1.86 1.684 -2.022 1.536 -2.181 1.389 -2.335 1.241 -2.487 1.094 -2.637 0.95 -2.787 0.806 -2.935 0.664 -3.084 0.524 -3.232 0.386 -3.381 0.248 -3.53 0.112 -3.679 -0.023 -3.829 -0.159 -3.98 -0.292 -4.131 -0.427 -4.283 -0.559 -4.435 -0.693 -4.588 -0.826 0.752 -3.929 4.5 0.81 4.34 0.678 4.179 0.546 4.019 0.415 3.858 0.284 3.695 0.153 3.534 0.023 3.37 -0.107 3.207 -0.235 3.043 -0.364 2.88 -0.489 2.715 -0.615 2.55 -0.737 2.388 -0.859 2.226 -0.979 2.065 -1.098 1.908 -1.215 1.753 -1.332 1.603 -1.451 1.455 -1.569 1.311 -1.692 1.169 -1.819 1.027 -1.947 0.888 -2.081 0.745 -2.217 0.602 -2.356 0.458 -2.496 0.31 -2.637 0.163 -2.779 0.012 -2.92 -0.139 -3.062 -0.292 -3.203z"/>
  </g>
  <polygon class="fil1 str0" points="53,23.918 58.995,28.164 66.323,28.279 68.696,35.264 74.556,39.695 72.4,46.75 74.556,53.806 68.696,58.237 66.323,65.222 58.995,65.337 53,69.582 47.005,65.337 39.678,65.222 37.305,58.237 31.445,53.806 33.6,46.75 31.445,39.695 37.305,35.264 39.678,28.279 47.005,28.164 "/>
  <circle class="fil2 str0" cx="53" cy="46.75" r="15"/>
  <polyline class="fil1 str1" points="42,47.75 48,55.75 62,39.75 "/>
 </g>
</svg>
