<?xml version="1.0" encoding="UTF-8"?>
<!DOCTYPE svg PUBLIC "-//W3C//DTD SVG 1.1//EN" "http://www.w3.org/Graphics/SVG/1.1/DTD/svg11.dtd">
<!-- Creator: CorelDRAW 2019 (64-Bit) -->
<svg xmlns="http://www.w3.org/2000/svg" xml:space="preserve" width="100px" height="100px" version="1.1" style="shape-rendering:geometricPrecision; text-rendering:geometricPrecision; image-rendering:optimizeQuality; fill-rule:evenodd; clip-rule:evenodd"
viewBox="0 0 100 100"
 xmlns:xlink="http://www.w3.org/1999/xlink"
 xmlns:xodm="http://www.corel.com/coreldraw/odm/2003">
 <defs>
  <style type="text/css">
   <![CDATA[
    .str1 {stroke:white;stroke-width:3;stroke-miterlimit:2.61313}
    .str0 {stroke:#FEBD69;stroke-width:2;stroke-miterlimit:2.61313}
    .fil0 {fill:none}
   ]]>
  </style>
 </defs>
 <g id="Layer_x0020_1">
  <metadata id="CorelCorpID_0Corel-Layer"/>
  <path class="fil0 str0" d="M66.965 76.912l-12.542 0 -37.189 0c-3.3,0 -6,-2.699 -6,-6l0 -50.826c0,-3.3 2.7,-6 6,-6l69.613 0c3.3,0 6,2.7 6,6l0 43.827"/>
  <path class="fil0 str0" d="M92.847 63.913l0 6.999c0,3.301 -2.7,6 -6,6l-7 0"/>
  <polyline class="fil0 str0" points="80.575,76.912 80.575,90.912 66.263,76.6 "/>
  <path class="fil0 str1" d="M83.347 50.412c-34.222,0 -35,0 -35,0"/>
  <path class="fil0 str1" d="M83.347 30.412c-48.889,0 -50.001,0 -50.001,0"/>
  <path class="fil0 str1" d="M83.346 40.412c-14.666,0 -14.999,0 -14.999,0"/>
 </g>
</svg>
